<?xml version="1.0" standalone="no"?>
<!DOCTYPE svg PUBLIC "-//W3C//DTD SVG 20010904//EN"
 "http://www.w3.org/TR/2001/REC-SVG-20010904/DTD/svg10.dtd">
<svg version="1.0" xmlns="http://www.w3.org/2000/svg"
 width="500.000000pt" height="500.000000pt" viewBox="0 0 500.000000 500.000000"
 preserveAspectRatio="xMidYMid meet">
<metadata>
Created by potrace 1.11, written by Peter Selinger 2001-2013
</metadata>
<g transform="translate(0.000000,500.000000) scale(0.100000,-0.100000)"
fill="#000000" stroke="none">
<path d="M1150 4737 c-3 -2 -25 -7 -50 -10 -25 -3 -78 -17 -118 -32 -258 -93
-435 -312 -531 -657 -54 -194 -63 -297 -64 -718 -1 -378 4 -523 24 -621 6 -30
12 -65 15 -79 19 -97 72 -255 115 -342 155 -307 411 -468 734 -462 313 7 562
172 697 464 38 80 77 180 72 180 -3 0 0 8 5 18 17 31 52 220 65 347 13 120 16
881 4 900 -3 6 -9 43 -12 84 -7 78 -55 280 -83 346 -74 179 -135 279 -229 372
-94 93 -187 146 -324 188 -52 15 -309 34 -320 22z m229 -112 c117 -16 245 -82
343 -177 89 -87 171 -224 213 -360 l18 -57 -481 -483 c-264 -266 -582 -586
-706 -712 -140 -142 -227 -224 -230 -215 -36 115 -44 250 -42 689 2 234 5 436
8 450 5 24 14 80 24 145 3 17 18 75 34 131 126 439 410 643 819 589z m609
-721 c-3 -3 -2 -22 3 -42 18 -77 24 -219 24 -592 0 -441 -4 -499 -45 -678 -84
-359 -270 -582 -542 -651 -109 -28 -276 -22 -386 13 -201 65 -360 234 -452
479 -18 49 -20 60 -8 75 7 9 266 271 574 582 309 311 618 622 685 692 68 70
130 127 138 127 8 1 12 -1 9 -5z"/>
<path d="M2795 3960 c4 -6 82 -104 173 -218 92 -115 181 -225 197 -246 17 -21
123 -155 237 -298 l207 -260 -137 -171 c-76 -95 -201 -251 -277 -347 -77 -96
-144 -180 -150 -186 -5 -6 -21 -25 -34 -42 -13 -17 -76 -97 -142 -179 -65 -81
-118 -151 -119 -154 0 -3 30 -5 66 -5 72 1 63 -5 140 92 352 441 569 713 582
729 9 11 33 40 52 65 48 62 88 105 93 100 2 -3 169 -212 372 -465 203 -253
380 -474 394 -490 24 -28 31 -30 93 -31 46 0 65 3 59 10 -5 6 -161 202 -347
436 -186 234 -344 432 -351 440 -6 8 -44 55 -83 104 -80 98 -79 96 -22 163 35
41 43 51 132 163 41 52 77 97 80 100 3 3 21 25 40 50 19 25 40 52 47 60 73 88
463 581 463 585 0 3 -30 5 -67 5 l-68 -1 -295 -370 c-162 -204 -304 -382 -315
-396 -11 -14 -33 -42 -50 -63 -16 -20 -41 -51 -55 -68 -14 -18 -28 -32 -32
-32 -4 0 -51 55 -105 123 -54 67 -100 124 -103 127 -3 3 -127 157 -275 343
l-269 337 -68 0 c-45 0 -67 -4 -63 -10z"/>
<path d="M856 1551 c-40 -58 -139 -205 -221 -326 -82 -121 -199 -295 -262
-387 -62 -92 -113 -175 -113 -185 0 -17 20 -18 337 -18 l338 0 0 -182 c1 -186
5 -210 38 -197 15 5 17 28 17 194 l0 187 118 0 117 -1 3 27 3 27 -120 0 -121
0 -2 482 -3 482 -28 1 c-25 2 -36 -10 -101 -104z m80 -416 l0 -445 -298 0
-298 0 284 424 c156 234 287 434 291 445 3 12 10 21 14 21 4 0 7 -200 7 -445z"/>
<path d="M2040 1555 c-37 -55 -131 -194 -209 -310 -340 -502 -393 -584 -389
-597 4 -10 73 -13 341 -12 l336 0 0 -160 c-1 -236 -3 -221 26 -222 l25 -2 0
192 0 193 103 -1 c128 -2 137 0 137 30 0 24 0 24 -120 24 l-120 0 0 484 0 484
-31 -2 c-29 -1 -39 -11 -99 -101z m78 -420 l0 -445 -298 0 -298 0 253 378
c140 207 273 407 295 445 22 37 42 67 44 67 2 0 4 -200 4 -445z"/>
<path d="M3123 1409 c-92 -137 -243 -360 -335 -496 -93 -136 -168 -253 -168
-260 0 -16 -25 -15 360 -16 l315 -2 5 -190 c5 -182 6 -190 25 -190 19 0 20 8
25 190 l5 190 105 2 c58 0 112 2 121 2 10 1 15 9 14 24 -2 21 -5 22 -123 25
l-122 3 -2 481 -3 481 -27 3 c-25 2 -40 -16 -195 -247z m177 -274 l0 -445
-301 0 -300 0 24 33 c39 52 489 726 531 795 22 34 40 62 42 62 2 0 4 -200 4
-445z"/>
<path d="M3849 1650 c0 -3 -2 -13 -4 -23 -2 -11 4 -19 18 -22 12 -2 199 -3
414 -3 216 1 395 0 397 -3 2 -2 -3 -20 -13 -39 -9 -19 -29 -64 -45 -100 -16
-36 -46 -101 -66 -145 -21 -44 -47 -100 -58 -125 -11 -25 -61 -137 -112 -250
-51 -113 -101 -225 -112 -250 -12 -25 -60 -132 -108 -237 -49 -106 -85 -193
-82 -194 4 0 15 -2 25 -4 15 -3 26 11 49 63 17 37 45 100 64 140 19 40 34 74
34 76 0 2 16 39 36 83 20 43 45 98 56 123 11 25 31 68 43 95 13 28 64 142 115
255 85 188 153 338 217 479 42 93 77 86 -425 86 -243 0 -442 -2 -443 -5z"/>
</g>
</svg>
